<svg viewBox="0 0 463.05 337.98" xmlns="http://www.w3.org/2000/svg"><path d="m91.26 262.42-9.49-51.09c-1.47-7.91-1.84-15.86-1.21-23.6-10.45 2.62-17.35 12.96-15.51 23.75l3.22 18.8-26.84 9.51c-2.37.84-4.99.06-6.58-1.89-2.78-3.4-7.36-5.16-12.02-4-5.74 1.42-9.61 7.09-8.86 12.96.85 6.69 7.08 11.28 13.68 10.18 4.37-.73 7.78-3.78 9.18-7.67.84-2.33 3.1-3.85 5.57-3.83l28.54.28 3.27 19.14c1.91 11.17 12.5 18.78 23.66 17.11-3.06-6.21-5.33-12.81-6.6-19.64z" fill="#7c878f"/><path d="m452.31 224.72c-4.75-.79-9.32 1.14-12.14 4.65-1.68 2.1-4.54 2.87-7.08 1.97l-35-12.39 3.45-23.92c1.64-11.36-6.32-22-17.69-23.64l-3.75-.54c1.21 9.38.99 19.31-.92 29.61l-13.21 71.13c-.45 2.41-1.03 4.76-1.7 7.07l4.04.58c11.36 1.64 22-6.32 23.64-17.69l3.4-23.61 36.69-.37c2.74-.03 5.15 1.7 6.1 4.26 1.65 4.48 5.75 7.9 10.95 8.35 6.4.56 12.38-3.9 13.68-10.19 1.48-7.18-3.3-14.09-10.47-15.28z" fill="#545d61"/><path d="m209.1 125.34c-13.92-3.07-27.53-6.3-40.69-9.63l-18.57 3.04c-41.56 6.79-65.05 50.25-57.19 92.6l9.49 51.09c6.13 33.02 35.26 60.69 67.72 64.56l86.85 10.35c44.5 5.3 90.53-21.83 98.69-65.74l13.21-71.13c3.53-19.02 1.37-36.83-5.14-52.09-4.8-.2-9.89-.51-15.28-.92-38.24-2.92-87.64-10.77-139.08-22.11zm-30.26 109.67c-21.48 0-38.9-17.42-38.9-38.9 0-.14.02-.28.02-.42l56.23-34.36c12.76 6.38 21.55 19.54 21.55 34.78 0 21.48-17.42 38.9-38.9 38.9zm54.49 64.87c-7.78 0-14.09-6.31-14.09-14.09s6.31-14.09 14.09-14.09 14.09 6.31 14.09 14.09-6.31 14.09-14.09 14.09zm86.98-69.73-23.49 16.95-20.71-28.71-28.71 20.71-16.95-23.49 28.71-20.71-20.71-28.71 23.49-16.95 20.71 28.71 28.71-20.71 16.95 23.49-28.71 20.71z" fill="#9f8cf1"/><g fill="#818cf1"><path d="m402.93 110.88c-8.69-5.41-21.64-11.39-38.49-17.78-2.57-.97-5.23-1.95-7.94-2.93 14.39-4.68 27.8-9.33 39.94-13.88 20.36-7.63 36.16-14.58 46.96-20.67 13.42-7.56 18.75-13.58 17.28-19.54-1.46-5.95-8.98-8.82-24.37-9.3-9.87-.3-22.86.39-38.62 2.04l9.5-11.7-23.49 2.72-12.86-19.84-4.67 23.18-22.85 6.09 9.9 5.58c-33.43 5.36-71.88 13.11-112.16 22.61-3.07-.7-6.16-1.39-9.26-2.08-23.16-5.11-45.88-9.49-67.34-13.04l10.86-5.89-23.41-6.66-4.42-23.94-13.57 20.21-24.13-3.2 10.32 13.15c-9.21-1.08-18.02-1.96-26.27-2.58-18.54-1.41-33.46-1.58-44.34-.48-13.52 1.36-20.45 4.64-22.48 10.63-2.02 5.99 1.89 11.66 12.68 18.38 1.07.67 2.21 1.35 3.42 2.03 8.53 4.86 20.3 10.15 35.07 15.75 10.83 4.1 22.91 8.24 35.97 12.34-13.69 4.33-26.56 8.65-38.45 12.9l6.53-12.29-23.15 7.38-16.88-17.47-.14 24.29-21.83 10.65 13.03 4.32c-6.06 2.77-11.36 5.41-15.78 7.9-13.39 7.55-18.72 13.58-17.25 19.53 1.46 5.95 8.98 8.82 24.37 9.3 1.53.05 3.14.07 4.82.07 11.9 0 27.46-1.19 46.37-3.54 5.16-.64 10.53-1.37 16.04-2.16 1.64-3.3 3.5-6.49 5.53-9.55-6.36.96-12.53 1.84-18.45 2.61-57.96 7.54-68.53 2.41-70.16 1.18.7-1.47 5.29-7.77 34.79-20.45l3.16 22.49 14.39-19.57 23.92 4.22-13.15-18.32c16.92-6.22 36.18-12.62 57.03-19.01 24.95 7.36 52.79 14.48 81.94 20.9 51.08 11.26 100.08 19.06 137.96 21.94 18.54 1.41 33.46 1.58 44.34.48 13.52-1.36 20.45-4.64 22.48-10.63 2.02-5.99-1.89-11.66-12.68-18.38zm-39.07-68.95-1.21 22.56 17.41-16.01 22.06 8.5-8.71-19.02c47.93-5.44 57.22-.93 58.74.22-.88 1.85-7.86 11.3-62.71 31.49-14.03 5.17-29.7 10.46-46.54 15.76-24.12-8.09-52.4-16.12-82.84-23.51 37.52-8.5 73.11-15.36 103.8-20zm-278.71 30.85c-45.45-16.86-50.38-25.82-50.92-27.61 1.58-1.32 11.47-7.02 61.21-2.89 8.74.73 18.08 1.71 27.86 2.93l-8.97 18.77 22.86-8.38 17.64 16.77-.85-22.82c21.4 3.37 44.19 7.63 67.47 12.62-32.5 8.02-63.73 16.57-92.1 25.19-16.17-4.82-31.08-9.73-44.2-14.6zm262.05 57.77c-37.08-3.08-84.49-10.73-133.51-21.53-24.16-5.33-47.5-11.16-69.02-17.2 25.18-7.41 52.3-14.72 80.26-21.6 5.25-1.29 10.46-2.54 15.66-3.78 31.69 7.28 61.63 15.35 87.5 23.57-4.26 1.29-8.57 2.58-12.96 3.87 4.46 1.41 8.77 3.14 12.92 5.17 4.84-1.46 9.57-2.92 14.24-4.38 5.28 1.79 10.36 3.59 15.19 5.38 45.44 16.86 50.38 25.82 50.92 27.61-1.58 1.32-11.47 7.02-61.21 2.89z"/><path d="m239.88 43.62 12.14-6.53 11.23 7.98-2.45-13.56 11.07-8.21-13.66-1.86-4.4-13.06-5.98 12.41-13.78.15 9.96 9.52z"/><path d="m440.73 90.29-7.18-14.27-4.84 15.23-15.79 2.42 12.99 9.31-2.58 15.77 12.86-9.49 14.21 7.33-5.05-15.16 11.36-11.25z"/><path d="m363.47 148.37c-4.8-.2-9.89-.51-15.28-.92-10.58-.81-22.03-2-34.13-3.53-.57 4.67-1.32 9.31-2.28 13.89l16.54 22.92-28.71 20.71 20.71 28.71-23.49 16.95-15.49-21.47c-12.06 16.88-27.06 32.5-44.48 46.54 6.07 1.56 10.57 7.06 10.57 13.63 0 7.78-6.31 14.09-14.09 14.09s-14.09-6.31-14.09-14.09c0-.19.02-.37.03-.55-20.76 14.21-44.27 26.37-69.9 36.04 6.53 2.9 13.43 4.86 20.48 5.7l86.85 10.35c44.5 5.3 90.53-21.83 98.69-65.74l13.21-71.13c3.53-19.02 1.37-36.83-5.14-52.09z"/><path d="m267.24 99.55-33.57 5.49c41.17 8.49 80.31 14.53 112.06 17.29-18.79-18.45-46.8-27.96-78.48-22.78z"/></g></svg>